<?xml version="1.0" encoding="utf-8"?>
<!-- Generator: Adobe Illustrator 18.1.1, SVG Export Plug-In . SVG Version: 6.00 Build 0)  -->
<svg version="1.1" id="Layer_1" xmlns="http://www.w3.org/2000/svg" xmlns:xlink="http://www.w3.org/1999/xlink" x="0px" y="0px"
	 viewBox="0 0 60 60" enable-background="new 0 0 60 60" xml:space="preserve">
<g>
	<path fill="#231F20" d="M36.9,4.3c8.7,2.3,15.6,9.2,18.1,17.8c1.2,4.2,1.3,8.3,0.7,12.1c0.6,0.2,1.2,0.5,1.8,0.8
		c0.8-4.1,0.7-8.5-0.5-13.1C54.4,12.5,46.9,5,37.4,2.5C16.4-3.1-2.4,15.2,2.2,36.2C4.5,46.3,12.3,54.4,22.4,57
		c4.6,1.2,9,1.2,13.2,0.3c-0.8-0.4-1.6-0.9-2.2-1.5c-3.8,0.5-7.8,0.3-11.9-1.1C13,52.1,6.5,45.2,4.3,36.7C-0.8,16.7,17-1,36.9,4.3z"
		/>
	<path fill="#231F20" d="M30.3,29.2H17.6c-0.5,0-0.9,0.4-0.9,0.9s0.4,0.9,0.9,0.9h13.2c0.2,0,0.3-0.1,0.5-0.2l13.2-14.1
		c0.2-0.2,0.3-0.4,0.3-0.6c0-0.3-0.1-0.5-0.3-0.7c-0.4-0.4-1-0.3-1.3,0L30.3,29.2z"/>
</g>
<path d="M58.1,39.2L42.2,31c-0.2-0.1-0.3-0.1-0.5,0l-15.9,8.2c-0.2,0.1-0.3,0.3-0.3,0.5c0,0.2,0.1,0.4,0.3,0.5l5.2,2.7v5.7
	c-1.3,0.3-2.2,1.4-2.2,2.7c0,1.5,1.2,2.7,2.7,2.7c1.5,0,2.7-1.2,2.7-2.7c0-1.3-0.9-2.4-2.2-2.7v-5.1l9.6,5c0.1,0,0.2,0.1,0.3,0.1
	c0.1,0,0.2,0,0.3-0.1l9.6-5v2.3c0,2.6-3.8,6.3-9.9,6.3c-1.5,0-3-0.2-4.7-0.7c-0.3-0.1-0.6,0.1-0.7,0.4c-0.1,0.3,0.1,0.6,0.4,0.7
	c1.8,0.5,3.4,0.7,5,0.7c6.8,0,11-4.3,11-7.4v-2.9l5.2-2.7c0.2-0.1,0.3-0.3,0.3-0.5C58.4,39.5,58.3,39.3,58.1,39.2z M33.2,51.3
	c0,0.9-0.7,1.6-1.6,1.6c-0.9,0-1.6-0.7-1.6-1.6s0.7-1.6,1.6-1.6C32.4,49.6,33.2,50.3,33.2,51.3z M42,47.3l-9-4.7l9.2-2.4
	c0.3-0.1,0.5-0.4,0.4-0.7c-0.1-0.3-0.4-0.5-0.7-0.4l-10.3,2.7l-4.2-2.2L42,32.1l14.7,7.6L42,47.3z"/>
</svg>
