<?xml version="1.0" encoding="utf-8"?>
<!-- Generator: Adobe Illustrator 18.1.1, SVG Export Plug-In . SVG Version: 6.00 Build 0)  -->
<svg version="1.1" id="Layer_1" xmlns="http://www.w3.org/2000/svg" xmlns:xlink="http://www.w3.org/1999/xlink" x="0px" y="0px"
	 viewBox="0 0 60 60" enable-background="new 0 0 60 60" xml:space="preserve">
<path d="M59.5,24.1l-29-15c-0.3-0.1-0.6-0.1-0.9,0l-29,15C0.2,24.3,0,24.6,0,25c0,0.4,0.2,0.7,0.5,0.9l9.5,4.9v10.3
	c-2.3,0.5-4,2.5-4,4.9c0,2.8,2.2,5,5,5s5-2.2,5-5c0-2.4-1.7-4.4-4-4.9v-9.3l17.5,9.1C29.7,41,29.8,41,30,41s0.3,0,0.5-0.1L48,31.8
	V36c0,4.7-7,11.5-18,11.5c-2.7,0-5.5-0.4-8.6-1.2c-0.5-0.1-1.1,0.2-1.2,0.7c-0.1,0.5,0.2,1.1,0.7,1.2c3.2,0.9,6.2,1.3,9.1,1.3
	c12.4,0,20-7.9,20-13.5v-5.2l9.5-4.9c0.3-0.2,0.5-0.5,0.5-0.9C60,24.6,59.8,24.3,59.5,24.1z M14,46c0,1.7-1.3,3-3,3s-3-1.3-3-3
	s1.3-3,3-3S14,44.3,14,46z M30,38.9l-16.5-8.5L30.3,26c0.5-0.1,0.9-0.7,0.7-1.2c-0.1-0.5-0.7-0.8-1.2-0.7l-18.8,5l-7.7-4L30,11.1
	L56.8,25L30,38.9z"/>
</svg>
