<?xml version="1.0" encoding="utf-8"?>
<!-- Generator: Adobe Illustrator 18.1.1, SVG Export Plug-In . SVG Version: 6.00 Build 0)  -->
<svg version="1.1" id="Layer_1" xmlns="http://www.w3.org/2000/svg" xmlns:xlink="http://www.w3.org/1999/xlink" x="0px" y="0px"
	 viewBox="0 0 60 60" enable-background="new 0 0 60 60" xml:space="preserve">
<path fill="#231F20" d="M57,16H42c-0.5-5.7-5.1-10-11-10s-10.5,4.3-11,10H3c-0.6,0-1,0.4-1,1v36c0,0.6,0.4,1,1,1h54c0.6,0,1-0.4,1-1
	V17C58,16.4,57.6,16,57,16z M31,8c4.7,0,8.5,3.4,8.9,8H22.1C22.5,11.4,26.3,8,31,8z M56,18v12H36v-3c0-0.6-0.4-1-1-1h-8
	c-0.6,0-1,0.4-1,1v3H4V18H56z M28,28h6v8h-6V28z M4,52V32h22v5c0,0.6,0.4,1,1,1h8c0.6,0,1-0.4,1-1v-5h20v20H4z"/>
</svg>
