<?xml version="1.0" encoding="utf-8"?>
<!-- Generator: Adobe Illustrator 18.1.1, SVG Export Plug-In . SVG Version: 6.00 Build 0)  -->
<svg version="1.1" id="Layer_1" xmlns="http://www.w3.org/2000/svg" xmlns:xlink="http://www.w3.org/1999/xlink" x="0px" y="0px"
	 viewBox="0 0 60 60" enable-background="new 0 0 60 60" xml:space="preserve">
<g>
	<path d="M30,0C18.4,0,9,9.4,9,21c0,11.2,19.4,37.5,20.2,38.6c0.2,0.3,0.5,0.4,0.8,0.4s0.6-0.1,0.8-0.4C31.6,58.5,51,32.2,51,21
		C51,9.4,41.6,0,30,0z M30,57.3C26.3,52.1,11,30.4,11,21c0-10.5,8.5-19,19-19s19,8.5,19,19C49,30.4,33.7,52.1,30,57.3z"/>
	<path d="M30,12c-5,0-9,4-9,9s4,9,9,9s9-4,9-9S35,12,30,12z M30,28c-3.9,0-7-3.1-7-7s3.1-7,7-7s7,3.1,7,7S33.9,28,30,28z"/>
</g>
</svg>
