<?xml version="1.0" encoding="utf-8"?>
<!-- Generator: Adobe Illustrator 18.1.1, SVG Export Plug-In . SVG Version: 6.00 Build 0)  -->
<svg version="1.1" id="Layer_1" xmlns="http://www.w3.org/2000/svg" xmlns:xlink="http://www.w3.org/1999/xlink" x="0px" y="0px"
	 viewBox="0 0 60 60" enable-background="new 0 0 60 60" xml:space="preserve">
<g>
	<path d="M29,56h6c0.6,0,1-0.4,1-1s-0.4-1-1-1h-6c-0.6,0-1,0.4-1,1S28.4,56,29,56z"/>
	<path d="M17,40c0.6,0,1-0.4,1-1V7c0-0.6-0.4-1-1-1s-1,0.4-1,1v32C16,39.6,16.4,40,17,40z"/>
	<path d="M21,42h-6c-0.6,0-1,0.4-1,1v12c0,0.6,0.4,1,1,1h6c0.6,0,1-0.4,1-1V43C22,42.4,21.6,42,21,42z M20,54h-4V44h4V54z"/>
	<path d="M31,50c0.6,0,1-0.4,1-1V27c0-0.6-0.4-1-1-1s-1,0.4-1,1v22C30,49.6,30.4,50,31,50z"/>
	<path d="M5,16c-0.6,0-1,0.4-1,1v34c0,0.6,0.4,1,1,1s1-0.4,1-1V17C6,16.4,5.6,16,5,16z"/>
	<path d="M59.9,56.2l-16-47.7c-0.1-0.3-0.3-0.5-0.5-0.6c-0.2-0.1-0.5-0.1-0.8,0l-7,2.5c-0.5,0.2-0.8,0.7-0.6,1.3l2.8,8.4H26V1
		c0-0.6-0.4-1-1-1H11c-0.6,0-1,0.4-1,1v7H1C0.4,8,0,8.4,0,9v50c0,0.6,0.4,1,1,1h10h14h14c0.6,0,1-0.4,1-1V26.4l11.1,32.9
		c0.1,0.3,0.3,0.5,0.5,0.6C51.7,60,51.8,60,52,60c0.1,0,0.2,0,0.3-0.1l7-2.5C59.8,57.3,60.1,56.7,59.9,56.2z M2,10h8v48H2V10z M12,9
		V2h12v19v37H12V9z M38,58H26V22h12V58z M52.6,57.7L37.3,11.9l5.1-1.8l15.4,45.8L52.6,57.7z"/>
</g>
</svg>
