<?xml version="1.0" encoding="utf-8"?>
<!-- Generator: Adobe Illustrator 18.1.1, SVG Export Plug-In . SVG Version: 6.00 Build 0)  -->
<svg version="1.1" id="Layer_1" xmlns="http://www.w3.org/2000/svg" xmlns:xlink="http://www.w3.org/1999/xlink" x="0px" y="0px"
	 viewBox="0 0 60 60" enable-background="new 0 0 60 60" xml:space="preserve">
<g opacity="0.23">
	
		<circle fill="none" stroke="#000000" stroke-linecap="round" stroke-linejoin="bevel" stroke-dasharray="4.9473,4.9473" cx="31.1" cy="30.2" r="25.2"/>
</g>
<g opacity="0.23">
	<path fill="#231F20" d="M39.1,24.1l-5.5-5.5c-0.1-0.1-0.2-0.1-0.3-0.1h-11c-0.2,0-0.4,0.2-0.4,0.4v22.7c0,0.2,0.2,0.4,0.4,0.4h16.5
		c0.2,0,0.4-0.2,0.4-0.4V24.4C39.2,24.3,39.2,24.2,39.1,24.1z M33.8,19.8l4.2,4.2h-4.2V19.8z M22.8,41.2v-22H33v5.1
		c0,0.2,0.2,0.4,0.4,0.4h5.1v16.5H22.8z"/>
	<path fill="#231F20" d="M26.4,26.3h4.4c0.2,0,0.4-0.2,0.4-0.4c0-0.2-0.2-0.4-0.4-0.4h-4.4c-0.2,0-0.4,0.2-0.4,0.4
		C26,26.1,26.2,26.3,26.4,26.3z"/>
	<path fill="#231F20" d="M35.3,28.7h-8.9c-0.2,0-0.4,0.2-0.4,0.4s0.2,0.4,0.4,0.4h8.9c0.2,0,0.4-0.2,0.4-0.4S35.5,28.7,35.3,28.7z"
		/>
	<path fill="#231F20" d="M35.3,31.8h-8.9c-0.2,0-0.4,0.2-0.4,0.4c0,0.2,0.2,0.4,0.4,0.4h8.9c0.2,0,0.4-0.2,0.4-0.4
		C35.7,32,35.5,31.8,35.3,31.8z"/>
	<path fill="#231F20" d="M35.3,34.9h-8.9c-0.2,0-0.4,0.2-0.4,0.4s0.2,0.4,0.4,0.4h8.9c0.2,0,0.4-0.2,0.4-0.4S35.5,34.9,35.3,34.9z"
		/>
	<path fill="#231F20" d="M35.3,38.1h-8.9c-0.2,0-0.4,0.2-0.4,0.4c0,0.2,0.2,0.4,0.4,0.4h8.9c0.2,0,0.4-0.2,0.4-0.4
		C35.7,38.3,35.5,38.1,35.3,38.1z"/>
</g>
</svg>
